<svg version="1.1" id="Layer_1" xmlns="http://www.w3.org/2000/svg" xmlns:xlink="http://www.w3.org/1999/xlink" x="0" y="0" style="enable-background:new 0 0 44 44" xml:space="preserve" viewBox="0 0 44 44" fit="" height="100%" width="100%" preserveAspectRatio="xMidYMid meet" focusable="false">
  <style>
    .st0{opacity:.4}.st1{fill:#fff}
   </style>
  <g id="Icon_x5F_Map_x5F_Size_x5F_S">
    <g id="Bg">
      <path d="M.5.5h43v43H.5z"></path>
      <path d="M43 1v42H1V1h42m1-1H0v44h44V0z"></path>
    </g>
    <g class="st0">
      <path d="M3 3h38v38H3z"></path>
      <path class="st1" d="M40 4v36H4V4h36m2-2H2v40h40V2z"></path>
    </g>
    <g class="st0">
      <path d="M3 15h26v26H3z"></path>
      <path class="st1" d="M28 16v24H4V16h24m2-2H2v28h28V14z"></path>
    </g>
    <path style="fill:#26ffdf" d="M2 24h18v18H2z"></path>
    <g id="Vector_Smart_Object_1_">
      <defs>
        <path id="SVGID_1_-s" d="M7 28h6.9v9.9H7z"></path>
      </defs>
      <clipPath id="SVGID_2_-s">
        <use xlink:href="#SVGID_1_-s" style="overflow:visible"></use>
      </clipPath>
      <g style="clip-path:url(#SVGID_2_-s)">
        <defs>
          <path id="SVGID_3_-s" d="M7 28h6.9v9.9H7z"></path>
        </defs>
        <clipPath id="SVGID_4_-s">
          <use xlink:href="#SVGID_3_-s" style="overflow:visible"></use>
        </clipPath>
        <path d="M10.4 28C8.5 28 7 29.5 7 31.4s1.5 3.4 3.4 3.4 3.4-1.5 3.4-3.4c.1-1.9-1.5-3.4-3.4-3.4m0 5.5c-1.1 0-2-.9-2-2s.9-2 2-2 2 .9 2 2-.9 2-2 2" style="clip-path:url(#SVGID_4_-s)"></path>
        <defs>
          <path id="SVGID_5_-s" d="M7 28h6.9v9.9H7z"></path>
        </defs>
        <clipPath id="SVGID_6_-s">
          <use xlink:href="#SVGID_5_-s" style="overflow:visible"></use>
        </clipPath>
        <path style="clip-path:url(#SVGID_6_-s)" d="m13.2 33.5-2.8 4.4-2.8-4.5 2.8.2z"></path>
      </g>
    </g>
  </g>
</svg>